<?xml version="1.0" encoding="UTF-8"?>
<svg xmlns="http://www.w3.org/2000/svg" version="1.1" viewBox="0 0 50 50">
  <defs>
    <style>
      .cls-1 {
        fill: #c0bfc1;
      }
    </style>
  </defs>
  <!-- Generator: Adobe Illustrator 28.6.0, SVG Export Plug-In . SVG Version: 1.2.0 Build 709)  -->
  <g>
    <g id="Layer_1">
      <path class="cls-1" d="M43.6,0C45.4,0,46.9.6,48.1,1.9c1.2,1.2,1.9,2.7,1.9,4.5v37.1c0,1.8-.6,3.4-1.9,4.6-1.2,1.2-2.7,1.9-4.5,1.9H6.5c-1.8,0-3.4-.6-4.6-1.9-1.2-1.2-1.9-2.8-1.9-4.6V6.4c0-1.8.6-3.3,1.9-4.5C3.1.6,4.6,0,6.5,0h37.1ZM44.4,21.1h-4.5c.3.7.5,1.4.6,2,0,.7,0,1.4,0,2.2,0,2.1-.4,4.1-1.2,5.9-.8,1.8-1.9,3.4-3.3,4.8-1.4,1.3-3,2.4-5,3.2-1.9.8-3.9,1.2-6.1,1.2s-4.2-.4-6-1.2c-1.9-.8-3.5-1.9-4.9-3.2-1.4-1.3-2.5-2.9-3.3-4.8-.8-1.8-1.2-3.8-1.2-5.9s.3-3.1.8-4.3h-4.8v21c0,.6.2,1,.6,1.4.4.4.9.6,1.5.6h34.8c.5,0,1-.2,1.4-.6.4-.4.6-.9.6-1.4v-21ZM25,15.1c-2.8,0-5.2.9-7.1,2.8-1.9,1.9-2.9,4.2-2.9,7s.3,2.6.8,3.7c.5,1.1,1.2,2.2,2.1,3,.9.9,2,1.6,3.2,2.1,1.2.5,2.5.8,3.9.8s2.7-.3,4-.8c1.2-.5,2.3-1.2,3.2-2.1.9-.9,1.6-1.9,2.1-3,.5-1.1.8-2.4.8-3.7s-.3-2.7-.8-3.9c-.5-1.2-1.3-2.2-2.1-3.1-.9-.9-2-1.6-3.2-2.1-1.2-.5-2.6-.8-4-.8M36.4,5.4c-.5,0-1,.2-1.5.7-.5.5-.7,1-.7,1.6v5.5c0,.5.2,1,.7,1.5.5.5,1,.7,1.5.7h5.7c.6,0,1.2-.2,1.6-.7.4-.5.7-1,.7-1.5v-5.5c0-.6-.2-1.1-.7-1.6-.4-.5-1-.7-1.6-.7h-5.7Z"/>
    </g>
  </g>
</svg>